# AST/ASF file generated using VICON BodyLanguage
# -----------------------------------------------
:version 1.10
:name VICON
:units
  mass 1.0
  length 0.45
  angle deg
:documentation
   .ast/.asf automatically generated from VICON data using
   VICON BodyBuilder and BodyLanguage model FoxedUp or BRILLIANT.MOD
:root
   order TX TY TZ RX RY RZ
   axis XYZ
   position 0 0 0  
   orientation 0 0 0 
:bonedata
  begin
     id 1 
     name lhipjoint
     direction 0.711131 -0.61297 0.344326 
     length 2.29162 
     axis 0 0 0  XYZ
  end
  begin
     id 2 
     name lfemur
     direction 0.34202 -0.939693 0  
     length 6.71424  
     axis 0 0 20  XYZ
    dof rx ry rz
    limits (-160.0 20.0)
           (-70.0 70.0)
           (-60.0 70.0)
  end
  begin
     id 3 
     name ltibia
     direction 0.34202 -0.939693 0   
     length 6.7087   
     axis 0 0 20   XYZ
    dof rx
    limits (-10.0 170.0)
  end
  begin
     id 4 
     name lfoot
     direction 0.0230374 -0.0632947 0.997729   
     length 1.56743   
     axis -90 7.62852e-016 20   XYZ
    dof rx rz
    limits (-45.0 90.0)
           (-70.0 20.0)
  end
  begin
     id 5 
     name ltoes
     direction 1.53585e-011 -4.21885e-011 1   
     length 0.802914   
     axis -90 7.62852e-016 20   XYZ
    dof rx
    limits (-90.0 20.0)
  end
  begin
     id 6 
     name rhipjoint
     direction -0.733192 -0.592884 0.333043   
     length 2.36925  
     axis 0 0 0  XYZ 
  end
  begin
     id 7 
     name rfemur
     direction -0.34202 -0.939693 0   
     length 6.67027   
     axis 0 0 -20   XYZ
    dof rx ry rz
    limits (-160.0 20.0)
           (-70.0 70.0)
           (-70.0 60.0)
  end
  begin
     id 8 
     name rtibia
     direction -0.34202 -0.939693 0   
     length 6.6862   
     axis 0 0 -20   XYZ
    dof rx
    limits (-10.0 170.0)
 end
 begin
     id 9 
     name rfoot
     direction -0.0949739 -0.260939 0.960672   
     length 1.67698  
     axis -90 -7.62852e-016 -20   XYZ
    dof rx rz
    limits (-45.0 90.0)
           (-20.0 70.0)
  end
  begin
     id 10 
     name rtoes
     direction -1.5353e-011 -4.21868e-011 1   
     length 0.846298   
     axis -90 -7.62852e-016 -20   XYZ
    dof rx
    limits (-90.0 20.0)
  end
  begin
     id 11 
     name lowerback
     direction -0.0206828 0.999785 -0.00109866   
     length 2.04382   
     axis 0 0 0   XYZ
    dof rx ry rz
    limits (-20.0 45.0)
           (-30.0 30.0)
           (-30.0 30.0)
  end
  begin
     id 12 
     name upperback
     direction -0.0105003 0.999727 -0.0208904   
     length 2.04538   
     axis 0 0 0   XYZ
    dof rx ry rz
    limits (-20.0 45.0)
           (-30.0 30.0)
           (-30.0 30.0)
  end
  begin
     id 13 
     name thorax
     direction -0.000416255 0.999808 -0.0196023   
     length 2.0399   
     axis 0 0 0   XYZ
    dof rx ry rz
    limits (-20.0 45.0)
           (-30.0 30.0)
           (-30.0 30.0)
  end
  begin
     id 14 
     name lowerneck
     direction 0.0627861 0.989205 0.13241   
     length 1.46207   
     axis 0 0 0   XYZ
    dof rx ry rz
    limits (-20.0 45.0)
           (-30.0 30.0)
           (-30.0 30.0)
  end
  begin
     id 15 
     name upperneck
     direction 0.00627179 0.994526 0.104303   
     length 1.41419   
     axis 0 0 0   XYZ
    dof rx ry rz
    limits (-20.0 45.0)
           (-30.0 30.0)
           (-30.0 30.0)
  end
  begin
     id 16
     name head
     direction -0.00443838 0.999688 0.0245968  
     length 1.50718  
     axis 0 0 0   XYZ
    dof rx ry rz
    limits (-20.0 45.0)
           (-30.0 30.0)
           (-30.0 30.0)
  end
  begin
     id 17 
     name lclavicle
     direction 0.758742 0.650995 -0.0227258  
     length 2.86888  
     axis 0 0 0   XYZ
    dof ry rz
    limits (-20.0 10.0)
           (0.0 20.0)
  end
  begin
     id 18 
     name lhumerus
     direction 1 -4.48962e-011 1.06664e-027   
     length 4.65776   
     axis -180 -30 -90   XYZ
    dof rx ry rz
    limits (-60.0 90.0)
           (-90.0 90.0)
           (-90.0 90.0)
  end
  begin
     id 19
     name lradius
     direction 1 -4.48968e-011 1.40404e-026   
     length 3.55539   
     axis -180 -30 -90   XYZ
    dof rx
    limits (-10.0 170.0)
  end
  begin
     id 20
     name lwrist
     direction 1 -4.48976e-011 3.32647e-026   
     length 1.77769   
     axis -2.20186e-014 90 90   XYZ
    dof ry
    limits (-180.0 0.0)
 end
  begin
     id 21 
     name lhand
     direction 1 -4.48982e-011 6.65293e-026   
     length 0.707264   
     axis -4.24514e-014 90 90   XYZ
    dof rx rz
    limits (-90.0 90.0)
           (-45.0 45.0)
  end
  begin
     id 22 
     name lfingers
     direction 1 -4.48966e-011 1.33059e-025   
     length 0.570215   
     axis -8.49028e-014 90 90   XYZ
    dof rx
    limits (0.0 90.0)
  end
  begin
     id 23
     name lthumb
     direction 0.707107 -6.3493e-011 0.707107   
     length 0.818718   
     axis -90 45 2.85299e-015   XYZ
    dof rx rz
    limits (-45.0 45.0)
           (-45.0 45.0)
  end
  begin
     id 24 
     name rclavicle
     direction -0.870343 0.482028 -0.100759   
     length 3.2251  
     axis 0 0 0   XYZ 
    dof ry rz
    limits (-10.0 20.0)
           (-20.0 0.0)
  end
  begin
     id 25 
     name rhumerus
     direction -1 -4.48974e-011 -9.45849e-028  
     length 4.71925   
     axis -180 30 90   XYZ
    dof rx ry rz
    limits (-90.0 60.0)
           (-90.0 90.0)
           (-90.0 90.0)
  end
  begin
     id 26 
     name rradius
     direction -1 -4.48965e-011 1.17607e-026   
     length 3.5699   
     axis -180 30 90   XYZ
    dof rx
    limits (-10.0 170.0)
  end
  begin
     id 27 
     name rwrist
     direction -1 -4.48968e-011 3.32647e-026   
     length 1.78495   
     axis -2.20186e-014 -90 -90   XYZ
    dof ry
    limits (-180.0 0.0)
  end
  begin
     id 28
     name rhand
     direction -1 -4.48995e-011 6.65293e-026   
     length 0.507757   
     axis -4.24514e-014 -90 -90   XYZ
    dof rx rz
    limits (-90.0 90.0)
           (-45.0 45.0)
  end
  begin
     id 29
     name rfingers
     direction -1 -4.48864e-011 1.33059e-025   
     length 0.409367   
     axis -8.49028e-014 -90 -90   XYZ
    dof rx
    limits (0.0 90.0)
  end
  begin
     id 30
     name rthumb
     direction -0.707107 -6.3494e-011 0.707107   
     length 0.587771   
     axis -90 -45 -2.85299e-015   XYZ
    dof rx rz
    limits (-45.0 45.0)
           (-45.0 45.0)
  end
:hierarchy
  begin
    root lhipjoint rhipjoint lowerback
    lhipjoint lfemur
    lfemur ltibia
    ltibia lfoot
    lfoot ltoes
    rhipjoint rfemur
    rfemur rtibia
    rtibia rfoot
    rfoot rtoes
    lowerback upperback
    upperback thorax
    thorax lowerneck lclavicle rclavicle
    lowerneck upperneck
    upperneck head
    lclavicle lhumerus
    lhumerus lradius
    lradius lwrist
    lwrist lhand lthumb
    lhand lfingers
    rclavicle rhumerus
    rhumerus rradius
    rradius rwrist
    rwrist rhand rthumb
    rhand rfingers
  end

#!OML:ASF E:\Steps\Project 1\Capture day 1\Session 2\Subject.ASF
:FULLY-SPECIFIED
:DEGREES
1
root 9.11254 16.327 9.24822 -153.004 -3.24893 -179.492
lowerback -29.3831 -2.06156 -6.52744
upperback -3.35485 -1.68353 0.567682
thorax 11.8593 -1.49815 3.43319
lowerneck 0.102995 -3.61984 -2.60953
upperneck -11.7053 -4.9785 6.98608
head -3.58435 -2.91876 2.9598
rclavicle -7.65321e-015 9.14409e-015
rhumerus -34.0001 -17.6336 -79.5889
rradius 28.0214
rwrist -0.37462
rhand -7.21907 -56.224
rfingers 7.12502
rthumb 18.6601 -85.349
lclavicle -7.65321e-015 9.14409e-015
lhumerus -29.0553 12.9739 79.5434
lradius 13.6586
lwrist -16.6667
lhand -21.3607 -11.4797
lfingers 7.12502
lthumb 5.02605 18.4406
rfemur -25.6779 9.68256 17.1176
rtibia 9.46777
rfoot -19.9614 -7.84827
rtoes -41.3367
lfemur -24.1946 -9.60305 -17.5559
ltibia 7.05754
lfoot -8.24721 4.20091
ltoes -40.9029
2
root 9.11157 16.3254 9.25286 -153.027 -3.31166 -179.534
lowerback -29.5239 -2.06878 -6.32032
upperback -3.22511 -1.70789 0.389998
thorax 12.0608 -1.49833 3.11685
lowerneck 0.607589 -3.71896 -1.41292
upperneck -12.306 -5.17595 5.8316
head -3.93536 -3.03804 2.39951
rclavicle -1.11816e-014 -6.75868e-015
rhumerus -33.7795 -17.809 -79.9117
rradius 27.8541
rwrist -0.404235
rhand -7.16373 -55.2421
rfingers 7.12502
rthumb 18.7133 -84.362
lclavicle -1.11816e-014 -6.75868e-015
lhumerus -28.926 12.7794 79.4079
lradius 13.8554
lwrist -16.3136
lhand -21.7805 -11.8257
lfingers 7.12502
lthumb 4.62071 18.1039
rfemur -25.5193 9.8244 17.0505
rtibia 9.25082
rfoot -19.905 -7.91321
rtoes -40.9539
lfemur -24.1915 -9.77205 -17.5562
ltibia 7.07821
lfoot -8.45846 4.08358
ltoes -38.6073
3
root 9.11096 16.3257 9.25712 -153.024 -3.28353 -179.526
lowerback -29.6786 -2.00742 -6.07847
upperback -3.1225 -1.66097 0.213107
thorax 12.2307 -1.46482 2.809
lowerneck 0.467817 -3.44057 -1.57391
upperneck -11.4103 -4.76749 5.55093
head -3.61042 -2.77036 2.28195
rclavicle 7.7526e-015 3.18055e-015
rhumerus -33.591 -18.0561 -80.1598
rradius 27.6695
rwrist -0.363072
rhand -6.94458 -54.5794
rfingers 7.12502
rthumb 18.9241 -83.6788
lclavicle 7.7526e-015 3.18055e-015
lhumerus -28.7174 12.3581 79.3634
lradius 14.0216
lwrist -15.687
lhand -21.5286 -11.7123
lfingers 7.12502
lthumb 4.86394 18.2119
rfemur -25.5127 9.84211 17.0355
rtibia 9.17932
rfoot -19.8237 -7.87679
rtoes -40.7138
lfemur -24.2702 -9.85432 -17.5363
ltibia 7.19208
lfoot -8.42318 4.2877
ltoes -39.5602
4
root 9.11006 16.3252 9.26145 -153.023 -3.23812 -179.518
lowerback -29.8742 -1.91401 -5.70629
upperback -2.99927 -1.60041 -0.059971
thorax 12.4369 -1.41765 2.33125
lowerneck 1.15317 -3.92002 -0.999009
upperneck -12.6886 -5.43167 5.86113
head -4.17825 -3.20124 2.38084
rclavicle 3.32964e-015 7.95139e-016
rhumerus -33.3995 -18.2758 -80.6049
rradius 27.6474
rwrist -0.350156
rhand -6.30445 -53.9364
rfingers 7.12502
rthumb 19.5397 -82.9745
lclavicle 3.32964e-015 7.95139e-016
lhumerus -28.4595 11.5318 79.3519
lradius 14.2462
lwrist -14.722
lhand -21.2711 -11.3865
lfingers 7.12502
lthumb 5.11262 18.5318
rfemur -25.5502 9.83683 17.0253
rtibia 9.18081
rfoot -19.7562 -7.82252
rtoes -40.5687
lfemur -24.3055 -9.7862 -17.5571
ltibia 7.23507
lfoot -8.3298 4.37552
ltoes -40.9873
5
root 9.10973 16.3251 9.2657 -153.043 -3.24207 -179.495
lowerback -30.005 -1.84145 -5.31212
upperback -2.9052 -1.58453 -0.322405
thorax 12.5869 -1.38824 1.83805
lowerneck 1.22837 -3.72898 -1.12591
upperneck -11.8408 -5.13261 5.59203
head -3.90386 -2.98796 2.27004
rclavicle -5.1684e-015 -9.54166e-015
rhumerus -33.2821 -18.4334 -81.0685
rradius 27.7449
rwrist -0.218599
rhand -6.45118 -54.15
rfingers 7.12502
rthumb 19.3986 -83.2024
lclavicle -5.1684e-015 -9.54166e-015
lhumerus -28.337 10.6346 79.3443
lradius 14.5233
lwrist -13.928
lhand -21.389 -11.0291
lfingers 7.12502
lthumb 4.99879 18.8919
rfemur -25.5299 9.84026 17.0563
rtibia 9.14275
rfoot -19.7098 -7.79504
rtoes -40.5477
lfemur -24.2685 -9.5865 -17.5849
ltibia 7.15527
lfoot -8.25018 4.16411
ltoes -41.342
6
root 9.10942 16.3263 9.2693 -153.022 -3.25776 -179.483
lowerback -30.0384 -1.85917 -5.29931
upperback -2.89787 -1.61153 -0.305478
thorax 12.6123 -1.40059 1.83792
lowerneck 1.43803 -3.99879 -0.813922
upperneck -12.7941 -5.51777 5.94633
head -4.27188 -3.26146 2.39589
rclavicle -3.77691e-015 2.38542e-014
rhumerus -33.2308 -18.4656 -81.0652
rradius 27.7551
rwrist -0.0617867
rhand -6.26561 -54.459
rfingers 7.12502
rthumb 19.577 -83.4934
lclavicle -3.77691e-015 2.38542e-014
lhumerus -28.287 10.4184 79.5104
lradius 14.6817
lwrist -13.7165
lhand -21.312 -11.0507
lfingers 7.12502
lthumb 5.07311 18.8686
rfemur -25.5533 9.8158 17.069
rtibia 9.08469
rfoot -19.6642 -7.73998
rtoes -40.4547
lfemur -24.3065 -9.41603 -17.6147
ltibia 7.10978
lfoot -8.15748 3.96708
ltoes -42.0222
